<svg xmlns="http://www.w3.org/2000/svg" width="64" height="64" viewBox="0 0 128 128">
  <defs>
    <linearGradient id="shield" x1="16" y1="10" x2="112" y2="120" gradientUnits="userSpaceOnUse">
      <stop offset="0" stop-color="#1A56DB"/>
      <stop offset="1" stop-color="#1E3A5F"/>
    </linearGradient>
  </defs>
  <path d="M64 7 111 25v37c0 31.2-20.2 50.8-47 59-26.8-8.2-47-27.8-47-59V25L64 7Z" fill="url(#shield)"/>
  <path d="M43 51 64 37l21 14v31H43V51Z" fill="#fff"/>
  <path d="M56 52h7v7h-7v-7Zm12 0h7v7h-7v-7ZM56 65h7v7h-7v-7Zm12 0h7v7h-7v-7Z" fill="#1A56DB"/>
  <path d="M49 79 60 90 84 66" fill="none" stroke="#F59E0B" stroke-width="10" stroke-linecap="round" stroke-linejoin="round"/>
</svg>
